<svg width="134" height="100" viewBox="0 0 134 100" fill="none" xmlns="http://www.w3.org/2000/svg">
<g filter="url(#filter0_d_2_62)">
<mask id="mask0_2_62" style="mask-type:alpha" maskUnits="userSpaceOnUse" x="14" y="14" width="106" height="73">
<g clip-path="url(#clip0_2_62)">
<path d="M26 14.0279L14 14.0279L14 71.6201L14 129.212L26 129.212L38 129.212L38 71.6201L38 14.0279L26 14.0279ZM36.1968 17.8251C36.1397 17.8976 35.8095 17.9248 35.1682 17.9066L34.2222 17.8795L34.2032 16.9823C34.1905 16.4023 34.2095 16.0488 34.2603 15.9673C34.3492 15.8132 35.9682 15.786 36.1651 15.931C36.273 16.0126 36.2857 16.1304 36.2857 16.8735C36.2857 17.4898 36.2603 17.7526 36.1968 17.8251ZM36.2095 23.616C36.0952 23.7791 34.3556 23.7701 34.2603 23.5979C34.2095 23.5163 34.1905 23.1629 34.2032 22.5829L34.2222 21.6857L35.1682 21.6585C35.8095 21.6404 36.1397 21.6676 36.1968 21.7401C36.3111 21.876 36.3238 23.4529 36.2095 23.616ZM36.2349 29.3254C36.1905 29.407 35.9429 29.4341 35.2 29.416L34.2222 29.3888L34.2032 28.4826C34.1905 27.7123 34.2032 27.5582 34.2984 27.4676C34.3682 27.386 34.6667 27.3498 35.2444 27.3498C36.2984 27.3498 36.2857 27.3407 36.2857 28.4191C36.2857 28.8541 36.2603 29.262 36.2349 29.3254ZM36.2095 35.1254C36.1016 35.2795 34.3746 35.2795 34.2667 35.1254C34.2159 35.0529 34.1905 34.7085 34.1905 34.192C34.1905 33.6754 34.2159 33.331 34.2667 33.2585C34.3175 33.186 34.6286 33.1498 35.2381 33.1498C35.8476 33.1498 36.1587 33.186 36.2095 33.2585C36.3111 33.4035 36.3111 34.9804 36.2095 35.1254ZM36.1841 40.8891C36.0571 41.0795 34.4698 41.0976 34.2984 40.9163C34.2032 40.8257 34.1905 40.6716 34.2032 39.9013L34.2222 38.9951L35.2 38.9679C35.9429 38.9498 36.1905 38.977 36.2349 39.0585C36.2603 39.122 36.2857 39.5298 36.2857 39.9648C36.2857 40.5629 36.2603 40.7804 36.1841 40.8891ZM36.2095 46.6348C36.127 46.7526 34.4889 46.7979 34.2921 46.6891C34.2095 46.6438 34.1905 46.4716 34.1905 45.7557C34.1905 45.1938 34.2159 44.8404 34.2667 44.7679C34.3746 44.6138 36.1016 44.6138 36.2095 44.7679C36.3111 44.9129 36.3111 46.4898 36.2095 46.6348ZM36.1651 52.4529C35.9682 52.5979 34.3492 52.5707 34.2603 52.4166C34.2095 52.3351 34.1905 51.9816 34.2032 51.4016L34.2222 50.5045L35.1682 50.4773C35.8095 50.4591 36.1397 50.4863 36.1968 50.5588C36.2603 50.6313 36.2857 50.8941 36.2857 51.5104C36.2857 52.2535 36.273 52.3713 36.1651 52.4529ZM36.1968 58.1532C36.1397 58.2257 35.8095 58.2529 35.1682 58.2348L34.2222 58.2076L34.2032 57.3104C34.1905 56.7304 34.2095 56.377 34.2603 56.2954C34.3555 56.1232 36.0952 56.1141 36.2095 56.2773C36.3238 56.4404 36.3111 58.0173 36.1968 58.1532ZM36.2095 63.9441C36.0952 64.1073 34.3555 64.0982 34.2603 63.926C34.2095 63.8445 34.1905 63.491 34.2032 62.911L34.2222 62.0138L35.1682 61.9866C35.8095 61.9685 36.1397 61.9957 36.1968 62.0682C36.3111 62.2041 36.3238 63.781 36.2095 63.9441ZM36.1968 69.6626C36.1397 69.7351 35.8095 69.7623 35.1682 69.7441L34.2222 69.717L34.2032 68.8107C34.1905 68.0404 34.2032 67.8863 34.2984 67.7957C34.4317 67.6507 35.9809 67.6326 36.1651 67.7685C36.273 67.8501 36.2857 67.9679 36.2857 68.711C36.2857 69.3273 36.2603 69.5901 36.1968 69.6626ZM36.2095 75.4535C36.1587 75.526 35.8476 75.5623 35.2381 75.5623C34.6286 75.5623 34.3175 75.526 34.2667 75.4535C34.2159 75.381 34.1905 75.0276 34.1905 74.4657C34.1905 73.7498 34.2095 73.5776 34.2921 73.5323C34.4889 73.4235 36.127 73.4688 36.2095 73.5866C36.3111 73.7316 36.3111 75.3085 36.2095 75.4535ZM36.2349 81.1629C36.1905 81.2445 35.9428 81.2716 35.2 81.2535L34.2222 81.2263L34.2032 80.3201C34.1905 79.5498 34.2032 79.3957 34.2984 79.3051C34.3682 79.2235 34.6667 79.1873 35.2444 79.1873C36.2984 79.1873 36.2857 79.1782 36.2857 80.2566C36.2857 80.6916 36.2603 81.0995 36.2349 81.1629ZM36.2095 86.9629C36.1587 87.0354 35.8476 87.0716 35.2381 87.0716C34.6286 87.0716 34.3175 87.0354 34.2667 86.9629C34.2159 86.8904 34.1905 86.546 34.1905 86.0295C34.1905 85.5129 34.2159 85.1685 34.2667 85.096C34.3175 85.0235 34.6286 84.9873 35.2381 84.9873C35.8476 84.9873 36.1587 85.0235 36.2095 85.096C36.3111 85.241 36.3111 86.8179 36.2095 86.9629ZM36.1841 92.7266C36.0571 92.917 34.4698 92.9351 34.2984 92.7538C34.2032 92.6632 34.1905 92.5091 34.2032 91.7388L34.2222 90.8326L35.2 90.8054C35.9428 90.7873 36.1905 90.8145 36.2349 90.896C36.2603 90.9595 36.2857 91.3673 36.2857 91.8023C36.2857 92.4004 36.2603 92.6179 36.1841 92.7266ZM36.1968 98.4813C36.1397 98.5538 35.8095 98.581 35.1682 98.5629L34.2222 98.5357L34.2032 97.6385C34.1905 97.0585 34.2095 96.7051 34.2603 96.6235C34.3555 96.4513 36.0952 96.4423 36.2095 96.6054C36.3238 96.7685 36.3111 98.3454 36.1968 98.4813ZM36.1651 104.29C35.9682 104.435 34.3492 104.408 34.2603 104.254C34.2095 104.173 34.1905 103.819 34.2032 103.239L34.2222 102.342L35.1682 102.315C35.8095 102.297 36.1397 102.324 36.1968 102.396C36.2603 102.469 36.2857 102.732 36.2857 103.348C36.2857 104.091 36.273 104.209 36.1651 104.29ZM36.1968 109.991C36.1397 110.063 35.8095 110.09 35.1682 110.072L34.2222 110.045L34.2032 109.148C34.1905 108.568 34.2095 108.214 34.2603 108.133C34.3492 107.979 35.9682 107.952 36.1651 108.097C36.273 108.178 36.2857 108.296 36.2857 109.039C36.2857 109.655 36.2603 109.918 36.1968 109.991ZM36.2095 115.782C36.0952 115.945 34.3555 115.936 34.2603 115.764C34.2095 115.682 34.1905 115.329 34.2032 114.749L34.2222 113.851L35.1682 113.824C35.8095 113.806 36.1397 113.833 36.1968 113.906C36.3111 114.042 36.3238 115.619 36.2095 115.782ZM36.2349 121.491C36.1905 121.573 35.9428 121.6 35.2 121.582L34.2222 121.554L34.2032 120.648C34.1905 119.878 34.2032 119.724 34.2984 119.633C34.3682 119.552 34.6667 119.515 35.2444 119.515C36.2984 119.515 36.2857 119.506 36.2857 120.585C36.2857 121.02 36.2603 121.428 36.2349 121.491ZM36.2095 127.291C36.1016 127.445 34.3746 127.445 34.2667 127.291C34.2159 127.219 34.1905 126.874 34.1905 126.358C34.1905 125.841 34.2159 125.497 34.2667 125.424C34.3746 125.27 36.1016 125.27 36.2095 125.424C36.3111 125.569 36.3111 127.146 36.2095 127.291ZM26.0317 41.7591L18.8889 41.7591L18.8889 28.1654L18.8889 14.5716L26.019 14.5716C29.9429 14.5716 33.1682 14.5898 33.1809 14.6079C33.1936 14.626 33.2 20.7432 33.1873 28.2016L33.1746 41.7591L26.0317 41.7591ZM26.0254 70.5779L18.8889 70.5779L18.9016 56.966L18.9206 43.3451L26.0444 43.3179L33.1746 43.2998L33.1873 56.8663C33.2 64.3338 33.2 70.4691 33.1873 70.5145C33.1746 70.5507 29.9555 70.5779 26.0254 70.5779ZM26.0508 99.3513L18.9206 99.3513L18.9206 85.7576L18.9206 72.1638L26 72.1366C29.8921 72.1276 33.1111 72.1366 33.1429 72.1548C33.1873 72.1729 33.2 76.7766 33.1936 85.7666L33.1746 99.3513L26.0508 99.3513ZM26.0508 128.17L18.9206 128.17L18.9206 114.576L18.9206 100.983L26 100.955C29.8921 100.946 33.1111 100.955 33.1428 100.974C33.1873 100.992 33.2 105.595 33.1936 114.585L33.1746 128.17L26.0508 128.17ZM17.6698 17.816C17.619 17.8885 17.3016 17.9248 16.654 17.9248C15.5492 17.9248 15.5873 17.961 15.5873 16.8735C15.5873 15.8495 15.5937 15.8404 16.673 15.8404C17.7587 15.8404 17.746 15.8223 17.746 16.9188C17.746 17.4082 17.7206 17.7435 17.6698 17.816ZM17.6444 23.5798C17.5683 23.6976 17.3841 23.7248 16.6667 23.7248C15.581 23.7248 15.5873 23.7338 15.5873 22.7188C15.5873 21.6041 15.5492 21.6404 16.654 21.6404C17.3016 21.6404 17.619 21.6766 17.6698 21.7491C17.7905 21.9213 17.7714 23.4076 17.6444 23.5798ZM17.6698 29.3254C17.619 29.3979 17.3016 29.4341 16.654 29.4341C15.5556 29.4341 15.5873 29.4613 15.5873 28.4191C15.5873 27.3679 15.6 27.3498 16.6476 27.3498C17.746 27.3498 17.746 27.3498 17.746 28.4373C17.746 28.9176 17.7143 29.262 17.6698 29.3254ZM17.6825 35.062C17.619 35.216 17.5365 35.2341 16.6667 35.2341C15.5492 35.2341 15.5873 35.2704 15.5873 34.192C15.5873 33.1135 15.5492 33.1498 16.6667 33.1498C17.4984 33.1498 17.619 33.1679 17.6762 33.3129C17.7651 33.5123 17.7651 34.8354 17.6825 35.062ZM17.6063 40.8891C17.4921 41.007 17.2825 41.0341 16.654 41.0341C15.6254 41.0341 15.5873 40.9979 15.5873 39.9829C15.5873 38.9135 15.5556 38.9498 16.654 38.9498C17.3016 38.9498 17.619 38.986 17.6698 39.0585C17.7206 39.131 17.746 39.4663 17.746 39.9557C17.746 40.6716 17.7333 40.7623 17.6063 40.8891ZM17.6825 46.5713C17.619 46.7254 17.5365 46.7435 16.6667 46.7435C15.5492 46.7435 15.5873 46.7798 15.5873 45.6651C15.5873 44.6501 15.5746 44.6591 16.6984 44.6591C17.5048 44.6591 17.619 44.6773 17.6762 44.8223C17.7651 45.0216 17.7651 46.3448 17.6825 46.5713ZM17.6444 52.3985C17.5683 52.5163 17.3841 52.5435 16.6857 52.5435C15.5936 52.5435 15.5873 52.5345 15.5873 51.5285C15.5873 50.4229 15.5492 50.4591 16.654 50.4591C17.3016 50.4591 17.619 50.4954 17.6698 50.5679C17.7905 50.7401 17.7714 52.2263 17.6444 52.3985ZM17.6698 58.1441C17.619 58.2166 17.3016 58.2529 16.654 58.2529C15.5492 58.2529 15.5873 58.2891 15.5873 57.1745C15.5873 56.1595 15.581 56.1685 16.6667 56.1685C17.7651 56.1685 17.746 56.1504 17.746 57.247C17.746 57.7363 17.7206 58.0716 17.6698 58.1441ZM17.6444 63.9079C17.5683 64.0257 17.3841 64.0529 16.6667 64.0529C15.5809 64.0529 15.5873 64.062 15.5873 63.047C15.5873 61.9323 15.5492 61.9685 16.654 61.9685C17.3016 61.9685 17.619 62.0048 17.6698 62.0773C17.7905 62.2495 17.7714 63.7357 17.6444 63.9079ZM17.6698 69.6535C17.619 69.726 17.3016 69.7623 16.654 69.7623C15.5492 69.7623 15.5873 69.7985 15.5873 68.711C15.5873 67.687 15.5936 67.6779 16.673 67.6779C17.7587 67.6779 17.746 67.6598 17.746 68.7563C17.746 69.2457 17.7206 69.581 17.6698 69.6535ZM17.6825 75.3901C17.619 75.5441 17.5365 75.5623 16.6984 75.5623C15.5746 75.5623 15.5873 75.5713 15.5873 74.5563C15.5873 73.4416 15.5492 73.4779 16.6667 73.4779C17.4984 73.4779 17.619 73.496 17.6762 73.641C17.7651 73.8404 17.7651 75.1635 17.6825 75.3901ZM17.6698 81.1629C17.619 81.2354 17.3016 81.2716 16.654 81.2716C15.5556 81.2716 15.5873 81.3079 15.5873 80.2385C15.5873 79.2235 15.6254 79.1873 16.654 79.1873C17.7333 79.1873 17.746 79.1963 17.746 80.2657C17.746 80.7551 17.7206 81.0904 17.6698 81.1629ZM17.6825 86.8995C17.619 87.0535 17.5365 87.0716 16.6667 87.0716C15.5492 87.0716 15.5873 87.1079 15.5873 85.9932C15.5873 84.9782 15.5746 84.9873 16.6984 84.9873C17.5048 84.9873 17.619 85.0054 17.6762 85.1504C17.7651 85.3498 17.7651 86.6729 17.6825 86.8995ZM17.6444 92.7266C17.5682 92.8445 17.3841 92.8716 16.6667 92.8716C15.6 92.8716 15.5873 92.8626 15.5873 91.8023C15.5873 90.7601 15.5556 90.7873 16.654 90.7873C17.3016 90.7873 17.619 90.8235 17.6698 90.896C17.7905 91.0682 17.7714 92.5545 17.6444 92.7266ZM17.6698 98.4723C17.619 98.5448 17.3016 98.581 16.654 98.581C15.5492 98.581 15.5873 98.6173 15.5873 97.5026C15.5873 96.4876 15.5809 96.4966 16.6667 96.4966C17.7651 96.4966 17.746 96.4785 17.746 97.5751C17.746 98.0645 17.7206 98.3998 17.6698 98.4723ZM17.6444 104.236C17.5682 104.354 17.3841 104.381 16.6857 104.381C15.5936 104.381 15.5873 104.372 15.5873 103.366C15.5873 102.26 15.5492 102.297 16.654 102.297C17.3016 102.297 17.619 102.333 17.6698 102.405C17.7905 102.578 17.7714 104.064 17.6444 104.236ZM17.6698 109.982C17.619 110.054 17.3016 110.09 16.654 110.09C15.5492 110.09 15.5873 110.127 15.5873 109.039C15.5873 108.015 15.5936 108.006 16.673 108.006C17.7587 108.006 17.746 107.988 17.746 109.084C17.746 109.574 17.7206 109.909 17.6698 109.982ZM17.6444 115.745C17.5682 115.863 17.3841 115.89 16.6667 115.89C15.5809 115.89 15.5873 115.899 15.5873 114.884C15.5873 113.77 15.5492 113.806 16.654 113.806C17.3016 113.806 17.619 113.842 17.6698 113.915C17.7905 114.087 17.7714 115.573 17.6444 115.745ZM17.6698 121.491C17.619 121.564 17.3016 121.6 16.654 121.6C15.5556 121.6 15.5873 121.636 15.5873 120.567C15.5873 119.552 15.619 119.515 16.6794 119.515C17.746 119.515 17.746 119.515 17.746 120.603C17.746 121.083 17.7143 121.428 17.6698 121.491ZM17.6825 127.228C17.619 127.382 17.5365 127.4 16.6667 127.4C15.5492 127.4 15.5873 127.436 15.5873 126.358C15.5873 125.279 15.5492 125.315 16.6667 125.315C17.4984 125.315 17.619 125.334 17.6762 125.479C17.7651 125.678 17.7651 127.001 17.6825 127.228Z" fill="black"/>
</g>
<g clip-path="url(#clip1_2_62)">
<path d="M108 14.0279L96 14.0279L96 71.6158L96 129.204L108 129.204L120 129.204L120 71.6158L120 14.0279L108 14.0279ZM118.197 17.8248C118.14 17.8973 117.81 17.9245 117.168 17.9064L116.222 17.8792L116.203 16.982C116.19 16.4021 116.21 16.0487 116.26 15.9671C116.349 15.8131 117.968 15.7859 118.165 15.9309C118.273 16.0124 118.286 16.1302 118.286 16.8733C118.286 17.4895 118.26 17.7523 118.197 17.8248ZM118.21 23.6153C118.095 23.7784 116.356 23.7694 116.26 23.5972C116.21 23.5156 116.19 23.1622 116.203 22.5823L116.222 21.6851L117.168 21.658C117.81 21.6398 118.14 21.667 118.197 21.7395C118.311 21.8754 118.324 23.4522 118.21 23.6153ZM118.235 29.3243C118.19 29.4058 117.943 29.433 117.2 29.4149L116.222 29.3877L116.203 28.4815C116.19 27.7113 116.203 27.5572 116.298 27.4666C116.368 27.385 116.667 27.3488 117.244 27.3488C118.298 27.3488 118.286 27.3397 118.286 28.4181C118.286 28.853 118.26 29.2608 118.235 29.3243ZM118.21 35.1238C118.102 35.2779 116.375 35.2779 116.267 35.1238C116.216 35.0513 116.19 34.707 116.19 34.1905C116.19 33.6739 116.216 33.3296 116.267 33.2571C116.317 33.1846 116.629 33.1483 117.238 33.1483C117.848 33.1483 118.159 33.1846 118.21 33.2571C118.311 33.4021 118.311 34.9788 118.21 35.1238ZM118.184 40.8872C118.057 41.0774 116.47 41.0956 116.298 40.9143C116.203 40.8237 116.19 40.6697 116.203 39.8994L116.222 38.9932L117.2 38.966C117.943 38.9479 118.19 38.9751 118.235 39.0567C118.26 39.1201 118.286 39.5279 118.286 39.9628C118.286 40.5609 118.26 40.7784 118.184 40.8872ZM118.21 46.6323C118.127 46.7502 116.489 46.7955 116.292 46.6867C116.21 46.6414 116.19 46.4692 116.19 45.7534C116.19 45.1915 116.216 44.8381 116.267 44.7656C116.375 44.6116 118.102 44.6116 118.21 44.7656C118.311 44.9106 118.311 46.4874 118.21 46.6323ZM118.165 52.45C117.968 52.595 116.349 52.5678 116.26 52.4138C116.21 52.3322 116.19 51.9788 116.203 51.3989L116.222 50.5017L117.168 50.4746C117.81 50.4564 118.14 50.4836 118.197 50.5561C118.26 50.6286 118.286 50.8914 118.286 51.5076C118.286 52.2507 118.273 52.3685 118.165 52.45ZM118.197 58.1499C118.14 58.2224 117.81 58.2496 117.168 58.2315L116.222 58.2043L116.203 57.3072C116.19 56.7272 116.21 56.3738 116.26 56.2923C116.356 56.1201 118.095 56.111 118.21 56.2741C118.324 56.4372 118.311 58.014 118.197 58.1499ZM118.21 63.9404C118.095 64.1036 116.356 64.0945 116.26 63.9223C116.21 63.8408 116.19 63.4873 116.203 62.9074L116.222 62.0103L117.168 61.9831C117.81 61.965 118.14 61.9921 118.197 62.0646C118.311 62.2006 118.324 63.7773 118.21 63.9404ZM118.197 69.6585C118.14 69.7309 117.81 69.7581 117.168 69.74L116.222 69.7128L116.203 68.8066C116.19 68.0364 116.203 67.8823 116.298 67.7917C116.432 67.6467 117.981 67.6286 118.165 67.7645C118.273 67.8461 118.286 67.9639 118.286 68.707C118.286 69.3232 118.26 69.586 118.197 69.6585ZM118.21 75.449C118.159 75.5215 117.848 75.5577 117.238 75.5577C116.629 75.5577 116.317 75.5215 116.267 75.449C116.216 75.3765 116.19 75.0231 116.19 74.4612C116.19 73.7453 116.21 73.5732 116.292 73.5279C116.489 73.4191 118.127 73.4644 118.21 73.5822C118.311 73.7272 118.311 75.304 118.21 75.449ZM118.235 81.1579C118.19 81.2395 117.943 81.2667 117.2 81.2485L116.222 81.2213L116.203 80.3152C116.19 79.5449 116.203 79.3909 116.298 79.3002C116.368 79.2187 116.667 79.1824 117.244 79.1824C118.298 79.1824 118.286 79.1734 118.286 80.2517C118.286 80.6867 118.26 81.0945 118.235 81.1579ZM118.21 86.9575C118.159 87.03 117.848 87.0662 117.238 87.0662C116.629 87.0662 116.317 87.03 116.267 86.9575C116.216 86.885 116.19 86.5406 116.19 86.0241C116.19 85.5076 116.216 85.1632 116.267 85.0907C116.317 85.0182 116.629 84.982 117.238 84.982C117.848 84.982 118.159 85.0182 118.21 85.0907C118.311 85.2357 118.311 86.8125 118.21 86.9575ZM118.184 92.7208C118.057 92.9111 116.47 92.9292 116.298 92.748C116.203 92.6574 116.19 92.5033 116.203 91.7331L116.222 90.8269L117.2 90.7997C117.943 90.7816 118.19 90.8088 118.235 90.8903C118.26 90.9537 118.286 91.3615 118.286 91.7965C118.286 92.3946 118.26 92.6121 118.184 92.7208ZM118.197 98.4751C118.14 98.5476 117.81 98.5747 117.168 98.5566L116.222 98.5294L116.203 97.6323C116.19 97.0524 116.21 96.6989 116.26 96.6174C116.356 96.4452 118.095 96.4362 118.21 96.5993C118.324 96.7624 118.311 98.3391 118.197 98.4751ZM118.165 104.284C117.968 104.429 116.349 104.401 116.26 104.247C116.21 104.166 116.19 103.812 116.203 103.233L116.222 102.335L117.168 102.308C117.81 102.29 118.14 102.317 118.197 102.39C118.26 102.462 118.286 102.725 118.286 103.341C118.286 104.084 118.273 104.202 118.165 104.284ZM118.197 109.984C118.14 110.056 117.81 110.083 117.168 110.065L116.222 110.038L116.203 109.141C116.19 108.561 116.21 108.207 116.26 108.126C116.349 107.972 117.968 107.945 118.165 108.09C118.273 108.171 118.286 108.289 118.286 109.032C118.286 109.648 118.26 109.911 118.197 109.984ZM118.21 115.774C118.095 115.937 116.356 115.928 116.26 115.756C116.21 115.674 116.19 115.321 116.203 114.741L116.222 113.844L117.168 113.817C117.81 113.799 118.14 113.826 118.197 113.898C118.311 114.034 118.324 115.611 118.21 115.774ZM118.235 121.483C118.19 121.565 117.943 121.592 117.2 121.574L116.222 121.546L116.203 120.64C116.19 119.87 116.203 119.716 116.298 119.625C116.368 119.544 116.667 119.508 117.244 119.508C118.298 119.508 118.286 119.499 118.286 120.577C118.286 121.012 118.26 121.42 118.235 121.483ZM118.21 127.283C118.102 127.437 116.375 127.437 116.267 127.283C116.216 127.21 116.19 126.866 116.19 126.349C116.19 125.833 116.216 125.488 116.267 125.416C116.375 125.262 118.102 125.262 118.21 125.416C118.311 125.561 118.311 127.138 118.21 127.283ZM108.032 41.7571L100.889 41.7571L100.889 28.1643L100.889 14.5716L108.019 14.5716C111.943 14.5716 115.168 14.5897 115.181 14.6079C115.194 14.626 115.2 20.7427 115.187 28.2006L115.175 41.7571L108.032 41.7571ZM108.025 70.5737L100.889 70.5737L100.902 56.9628L100.921 43.3429L108.044 43.3157L115.175 43.2976L115.187 56.8632C115.2 64.3301 115.2 70.465 115.187 70.5103C115.175 70.5465 111.956 70.5737 108.025 70.5737ZM108.051 99.345L100.921 99.345L100.921 85.7523L100.921 72.1595L108 72.1323C111.892 72.1233 115.111 72.1323 115.143 72.1505C115.187 72.1686 115.2 76.772 115.194 85.7613L115.175 99.345L108.051 99.345ZM108.051 128.162L100.921 128.162L100.921 114.569L100.921 100.976L108 100.949C111.892 100.94 115.111 100.949 115.143 100.967C115.187 100.985 115.2 105.589 115.194 114.578L115.175 128.162L108.051 128.162ZM99.6698 17.8157C99.619 17.8882 99.3016 17.9245 98.654 17.9245C97.5492 17.9245 97.5873 17.9607 97.5873 16.8733C97.5873 15.8493 97.5937 15.8403 98.673 15.8403C99.7587 15.8403 99.746 15.8221 99.746 16.9186C99.746 17.408 99.7206 17.7432 99.6698 17.8157ZM99.6444 23.5791C99.5683 23.6969 99.3841 23.724 98.6667 23.724C97.581 23.724 97.5873 23.7331 97.5873 22.7182C97.5873 21.6036 97.5492 21.6398 98.654 21.6398C99.3016 21.6398 99.619 21.6761 99.6698 21.7486C99.7905 21.9207 99.7714 23.4069 99.6444 23.5791ZM99.6698 29.3243C99.619 29.3968 99.3016 29.433 98.654 29.433C97.5556 29.433 97.5873 29.4602 97.5873 28.4181C97.5873 27.3669 97.6 27.3488 98.6476 27.3488C99.746 27.3488 99.746 27.3488 99.746 28.4362C99.746 28.9165 99.7143 29.2608 99.6698 29.3243ZM99.6825 35.0604C99.619 35.2144 99.5365 35.2326 98.6667 35.2326C97.5492 35.2326 97.5873 35.2688 97.5873 34.1905C97.5873 33.1121 97.5492 33.1483 98.6667 33.1483C99.4984 33.1483 99.619 33.1665 99.6762 33.3115C99.7651 33.5108 99.7651 34.8338 99.6825 35.0604ZM99.6063 40.8871C99.4921 41.005 99.2825 41.0321 98.654 41.0321C97.6254 41.0321 97.5873 40.9959 97.5873 39.981C97.5873 38.9117 97.5556 38.9479 98.654 38.9479C99.3016 38.9479 99.619 38.9842 99.6698 39.0567C99.7206 39.1292 99.746 39.4644 99.746 39.9538C99.746 40.6697 99.7333 40.7603 99.6063 40.8871ZM99.6825 46.5689C99.619 46.723 99.5365 46.7411 98.6667 46.7411C97.5492 46.7411 97.5873 46.7773 97.5873 45.6627C97.5873 44.6478 97.5746 44.6569 98.6984 44.6569C99.5048 44.6569 99.619 44.675 99.6762 44.82C99.7651 45.0193 99.7651 46.3424 99.6825 46.5689ZM99.6444 52.3957C99.5683 52.5135 99.3841 52.5407 98.6857 52.5407C97.5936 52.5407 97.5873 52.5316 97.5873 51.5257C97.5873 50.4202 97.5492 50.4564 98.654 50.4564C99.3016 50.4564 99.619 50.4927 99.6698 50.5652C99.7905 50.7374 99.7714 52.2235 99.6444 52.3957ZM99.6698 58.1409C99.619 58.2134 99.3016 58.2496 98.654 58.2496C97.5492 58.2496 97.5873 58.2859 97.5873 57.1713C97.5873 56.1563 97.581 56.1654 98.6667 56.1654C99.7651 56.1654 99.746 56.1473 99.746 57.2437C99.746 57.7331 99.7206 58.0684 99.6698 58.1409ZM99.6444 63.9042C99.5683 64.022 99.3841 64.0492 98.6667 64.0492C97.5809 64.0492 97.5873 64.0582 97.5873 63.0433C97.5873 61.9287 97.5492 61.965 98.654 61.965C99.3016 61.965 99.619 62.0012 99.6698 62.0737C99.7905 62.2459 99.7714 63.732 99.6444 63.9042ZM99.6698 69.6494C99.619 69.7219 99.3016 69.7581 98.654 69.7581C97.5492 69.7581 97.5873 69.7944 97.5873 68.707C97.5873 67.683 97.5936 67.6739 98.673 67.6739C99.7587 67.6739 99.746 67.6558 99.746 68.7523C99.746 69.2416 99.7206 69.5769 99.6698 69.6494ZM99.6825 75.3855C99.619 75.5396 99.5365 75.5577 98.6984 75.5577C97.5746 75.5577 97.5873 75.5668 97.5873 74.5518C97.5873 73.4372 97.5492 73.4735 98.6667 73.4735C99.4984 73.4735 99.619 73.4916 99.6762 73.6366C99.7651 73.836 99.7651 75.159 99.6825 75.3855ZM99.6698 81.1579C99.619 81.2304 99.3016 81.2667 98.654 81.2667C97.5556 81.2667 97.5873 81.3029 97.5873 80.2336C97.5873 79.2187 97.6254 79.1824 98.654 79.1824C99.7333 79.1824 99.746 79.1915 99.746 80.2608C99.746 80.7501 99.7206 81.0854 99.6698 81.1579ZM99.6825 86.894C99.619 87.0481 99.5365 87.0662 98.6667 87.0662C97.5492 87.0662 97.5873 87.1025 97.5873 85.9879C97.5873 84.9729 97.5746 84.982 98.6984 84.982C99.5048 84.982 99.619 85.0001 99.6762 85.1451C99.7651 85.3445 99.7651 86.6675 99.6825 86.894ZM99.6444 92.7208C99.5682 92.8386 99.3841 92.8658 98.6667 92.8658C97.6 92.8658 97.5873 92.8567 97.5873 91.7965C97.5873 90.7544 97.5556 90.7816 98.654 90.7816C99.3016 90.7816 99.619 90.8178 99.6698 90.8903C99.7905 91.0625 99.7714 92.5486 99.6444 92.7208ZM99.6698 98.466C99.619 98.5385 99.3016 98.5747 98.654 98.5747C97.5492 98.5747 97.5873 98.611 97.5873 97.4964C97.5873 96.4815 97.5809 96.4905 98.6667 96.4905C99.7651 96.4905 99.746 96.4724 99.746 97.5689C99.746 98.0582 99.7206 98.3935 99.6698 98.466ZM99.6444 104.229C99.5682 104.347 99.3841 104.374 98.6857 104.374C97.5936 104.374 97.5873 104.365 97.5873 103.359C97.5873 102.254 97.5492 102.29 98.654 102.29C99.3016 102.29 99.619 102.326 99.6698 102.399C99.7905 102.571 99.7714 104.057 99.6444 104.229ZM99.6698 109.975C99.619 110.047 99.3016 110.083 98.654 110.083C97.5492 110.083 97.5873 110.12 97.5873 109.032C97.5873 108.008 97.5936 107.999 98.673 107.999C99.7587 107.999 99.746 107.981 99.746 109.077C99.746 109.567 99.7206 109.902 99.6698 109.975ZM99.6444 115.738C99.5682 115.856 99.3841 115.883 98.6667 115.883C97.5809 115.883 97.5873 115.892 97.5873 114.877C97.5873 113.762 97.5492 113.799 98.654 113.799C99.3016 113.799 99.619 113.835 99.6698 113.907C99.7905 114.08 99.7714 115.566 99.6444 115.738ZM99.6698 121.483C99.619 121.556 99.3016 121.592 98.654 121.592C97.5556 121.592 97.5873 121.628 97.5873 120.559C97.5873 119.544 97.619 119.508 98.6794 119.508C99.746 119.508 99.746 119.508 99.746 120.595C99.746 121.075 99.7143 121.42 99.6698 121.483ZM99.6825 127.219C99.619 127.373 99.5365 127.391 98.6667 127.391C97.5492 127.391 97.5873 127.428 97.5873 126.349C97.5873 125.271 97.5492 125.307 98.6667 125.307C99.4984 125.307 99.619 125.325 99.6762 125.47C99.7651 125.67 99.7651 126.993 99.6825 127.219Z" fill="black"/>
</g>
<rect x="38" y="14.0247" width="58" height="72.0032" fill="#D9D9D9"/>
</mask>
<g mask="url(#mask0_2_62)">
<mask id="mask1_2_62" style="mask-type:alpha" maskUnits="userSpaceOnUse" x="-37" y="-15" width="208" height="148">
<rect x="22.8368" y="-14.3094" width="120.696" height="67.1256" transform="rotate(61.4831 22.8368 -14.3094)" fill="#FF9D00"/>
<rect width="130.211" height="68.4594" transform="matrix(-0.477417 0.878677 0.878677 0.477417 109.991 -14.9462)" fill="url(#paint0_linear_2_62)"/>
</mask>
<g mask="url(#mask1_2_62)">
<rect x="22.6528" y="-15.2695" width="73.7842" height="100.827" transform="rotate(28.8578 22.6528 -15.2695)" fill="#F6BD40"/>
<rect x="102.966" y="-0.980911" width="73.46" height="100.827" transform="rotate(28.806 102.966 -0.980911)" fill="url(#paint1_linear_2_62)"/>
</g>
</g>
</g>
<defs>
<filter id="filter0_d_2_62" x="0.9" y="0.924688" width="132.2" height="98.2032" filterUnits="userSpaceOnUse" color-interpolation-filters="sRGB">
<feFlood flood-opacity="0" result="BackgroundImageFix"/>
<feColorMatrix in="SourceAlpha" type="matrix" values="0 0 0 0 0 0 0 0 0 0 0 0 0 0 0 0 0 0 127 0" result="hardAlpha"/>
<feOffset/>
<feGaussianBlur stdDeviation="6.55"/>
<feComposite in2="hardAlpha" operator="out"/>
<feColorMatrix type="matrix" values="0 0 0 0 0.701923 0 0 0 0 0.701923 0 0 0 0 0.701923 0 0 0 0.43 0"/>
<feBlend mode="normal" in2="BackgroundImageFix" result="effect1_dropShadow_2_62"/>
<feBlend mode="normal" in="SourceGraphic" in2="effect1_dropShadow_2_62" result="shape"/>
</filter>
<linearGradient id="paint0_linear_2_62" x1="54.5392" y1="7.17547" x2="90.2633" y2="41.1087" gradientUnits="userSpaceOnUse">
<stop stop-color="#65C4FF"/>
<stop offset="0.305" stop-color="#7A8FE4"/>
<stop offset="1" stop-color="#AA18A8"/>
</linearGradient>
<linearGradient id="paint1_linear_2_62" x1="109.537" y1="13.3458" x2="144.413" y2="77.7901" gradientUnits="userSpaceOnUse">
<stop offset="0.172133" stop-color="#8CEAF4"/>
<stop offset="1" stop-color="#F881FA"/>
</linearGradient>
<clipPath id="clip0_2_62">
<rect width="72" height="24" fill="white" transform="translate(38 14.0279) rotate(90)"/>
</clipPath>
<clipPath id="clip1_2_62">
<rect width="72" height="24" fill="white" transform="translate(120 14.0279) rotate(90)"/>
</clipPath>
</defs>
</svg>
