<svg width="107" height="25" viewBox="0 0 107 25" fill="none" xmlns="http://www.w3.org/2000/svg">
<path d="M0.94 23.9753V2.97531H4.12L11.77 15.4253L10.24 15.3953L17.98 2.97531H20.98V23.9753H17.74V15.3653C17.74 13.5653 17.78 11.9453 17.86 10.5053C17.96 9.06531 18.12 7.63531 18.34 6.21531L18.76 7.32531L11.89 17.9453H9.91L3.25 7.44531L3.58 6.21531C3.8 7.55531 3.95 8.93531 4.03 10.3553C4.13 11.7553 4.18 13.4253 4.18 15.3653V23.9753H0.94ZM31.0677 24.2753C29.5277 24.2753 28.1477 23.9253 26.9277 23.2253C25.7277 22.5053 24.7777 21.5353 24.0777 20.3153C23.3777 19.0753 23.0277 17.6653 23.0277 16.0853C23.0277 14.5053 23.3777 13.1053 24.0777 11.8853C24.7777 10.6453 25.7277 9.67531 26.9277 8.97531C28.1477 8.25531 29.5277 7.89531 31.0677 7.89531C32.5877 7.89531 33.9477 8.25531 35.1477 8.97531C36.3677 9.67531 37.3277 10.6453 38.0277 11.8853C38.7277 13.1053 39.0777 14.5053 39.0777 16.0853C39.0777 17.6653 38.7277 19.0753 38.0277 20.3153C37.3277 21.5353 36.3677 22.5053 35.1477 23.2253C33.9477 23.9253 32.5877 24.2753 31.0677 24.2753ZM31.0677 21.4553C32.0077 21.4553 32.8477 21.2253 33.5877 20.7653C34.3277 20.2853 34.9077 19.6453 35.3277 18.8453C35.7477 18.0253 35.9477 17.1053 35.9277 16.0853C35.9477 15.0453 35.7477 14.1253 35.3277 13.3253C34.9077 12.5053 34.3277 11.8653 33.5877 11.4053C32.8477 10.9453 32.0077 10.7153 31.0677 10.7153C30.1277 10.7153 29.2777 10.9553 28.5177 11.4353C27.7777 11.8953 27.1977 12.5353 26.7777 13.3553C26.3577 14.1553 26.1577 15.0653 26.1777 16.0853C26.1577 17.1053 26.3577 18.0253 26.7777 18.8453C27.1977 19.6453 27.7777 20.2853 28.5177 20.7653C29.2777 21.2253 30.1277 21.4553 31.0677 21.4553ZM47.4248 24.2753C45.8848 24.2753 44.5048 23.9253 43.2848 23.2253C42.0848 22.5053 41.1348 21.5353 40.4348 20.3153C39.7348 19.0753 39.3848 17.6653 39.3848 16.0853C39.3848 14.5053 39.7348 13.1053 40.4348 11.8853C41.1348 10.6453 42.0848 9.67531 43.2848 8.97531C44.5048 8.25531 45.8848 7.89531 47.4248 7.89531C48.9448 7.89531 50.3048 8.25531 51.5048 8.97531C52.7248 9.67531 53.6848 10.6453 54.3848 11.8853C55.0848 13.1053 55.4348 14.5053 55.4348 16.0853C55.4348 17.6653 55.0848 19.0753 54.3848 20.3153C53.6848 21.5353 52.7248 22.5053 51.5048 23.2253C50.3048 23.9253 48.9448 24.2753 47.4248 24.2753ZM47.4248 21.4553C48.3648 21.4553 49.2048 21.2253 49.9448 20.7653C50.6848 20.2853 51.2648 19.6453 51.6848 18.8453C52.1048 18.0253 52.3048 17.1053 52.2848 16.0853C52.3048 15.0453 52.1048 14.1253 51.6848 13.3253C51.2648 12.5053 50.6848 11.8653 49.9448 11.4053C49.2048 10.9453 48.3648 10.7153 47.4248 10.7153C46.4848 10.7153 45.6348 10.9553 44.8748 11.4353C44.1348 11.8953 43.5548 12.5353 43.1348 13.3553C42.7148 14.1553 42.5148 15.0653 42.5348 16.0853C42.5148 17.1053 42.7148 18.0253 43.1348 18.8453C43.5548 19.6453 44.1348 20.2853 44.8748 20.7653C45.6348 21.2253 46.4848 21.4553 47.4248 21.4553ZM64.9818 24.2753C64.3018 24.2753 63.6218 24.1653 62.9418 23.9453C62.2818 23.7253 61.6718 23.4353 61.1118 23.0753C60.5718 22.6953 60.1118 22.2853 59.7318 21.8453C59.3718 21.3853 59.1318 20.9253 59.0118 20.4653L59.7918 20.0453V23.8853H56.7018V1.77531H59.7918V11.8253L59.3118 11.5553C59.4118 11.0953 59.6318 10.6553 59.9718 10.2353C60.3118 9.79531 60.7418 9.40531 61.2618 9.06531C61.8018 8.70531 62.3818 8.42531 63.0018 8.22531C63.6218 8.00531 64.2518 7.89531 64.8918 7.89531C66.3118 7.89531 67.5718 8.24531 68.6718 8.94531C69.7718 9.64531 70.6418 10.6153 71.2818 11.8553C71.9218 13.0753 72.2418 14.4753 72.2418 16.0553C72.2418 17.6353 71.9218 19.0453 71.2818 20.2853C70.6618 21.5253 69.8018 22.5053 68.7018 23.2253C67.6018 23.9253 66.3618 24.2753 64.9818 24.2753ZM64.4718 21.4553C65.3918 21.4553 66.2118 21.2253 66.9318 20.7653C67.6518 20.2853 68.2218 19.6453 68.6418 18.8453C69.0618 18.0253 69.2718 17.0953 69.2718 16.0553C69.2718 15.0353 69.0618 14.1253 68.6418 13.3253C68.2418 12.5053 67.6818 11.8653 66.9618 11.4053C66.2418 10.9453 65.4118 10.7153 64.4718 10.7153C63.5318 10.7153 62.7018 10.9453 61.9818 11.4053C61.2618 11.8653 60.6918 12.5053 60.2718 13.3253C59.8518 14.1253 59.6418 15.0353 59.6418 16.0553C59.6418 17.0953 59.8518 18.0253 60.2718 18.8453C60.6918 19.6453 61.2618 20.2853 61.9818 20.7653C62.7018 21.2253 63.5318 21.4553 64.4718 21.4553ZM74.0083 23.9753V8.22531H77.0983V23.9753H74.0083ZM75.5083 4.74531C74.8483 4.74531 74.3383 4.57531 73.9783 4.23531C73.6183 3.89531 73.4383 3.41531 73.4383 2.79531C73.4383 2.21531 73.6183 1.74531 73.9783 1.38531C74.3583 1.02531 74.8683 0.84531 75.5083 0.84531C76.1683 0.84531 76.6783 1.01531 77.0383 1.35531C77.3983 1.69531 77.5783 2.17531 77.5783 2.79531C77.5783 3.37531 77.3883 3.84531 77.0083 4.20531C76.6483 4.56531 76.1483 4.74531 75.5083 4.74531ZM87.0979 24.2753C85.4779 24.2753 84.0379 23.9353 82.7779 23.2553C81.5379 22.5553 80.5579 21.6053 79.8379 20.4053C79.1379 19.2053 78.7879 17.8253 78.7879 16.2653C78.7879 15.0253 78.9879 13.8953 79.3879 12.8753C79.7879 11.8553 80.3379 10.9753 81.0379 10.2353C81.7579 9.47531 82.6079 8.89531 83.5879 8.49531C84.5879 8.07531 85.6679 7.86531 86.8279 7.86531C87.8479 7.86531 88.7979 8.06531 89.6779 8.46531C90.5579 8.84531 91.3179 9.37531 91.9579 10.0553C92.6179 10.7353 93.1179 11.5453 93.4579 12.4853C93.8179 13.4053 93.9879 14.4153 93.9679 15.5153L93.9379 16.8353H81.0679L80.3779 14.3753H91.2679L90.8179 14.8853V14.1653C90.7579 13.5053 90.5379 12.9153 90.1579 12.3953C89.7779 11.8753 89.2979 11.4653 88.7179 11.1653C88.1379 10.8653 87.5079 10.7153 86.8279 10.7153C85.7479 10.7153 84.8379 10.9253 84.0979 11.3453C83.3579 11.7453 82.7979 12.3453 82.4179 13.1453C82.0379 13.9253 81.8479 14.8953 81.8479 16.0553C81.8479 17.1553 82.0779 18.1153 82.5379 18.9353C82.9979 19.7353 83.6479 20.3553 84.4879 20.7953C85.3279 21.2353 86.2979 21.4553 87.3979 21.4553C88.1779 21.4553 88.8979 21.3253 89.5579 21.0653C90.2379 20.8053 90.9679 20.3353 91.7479 19.6553L93.3079 21.8453C92.8279 22.3253 92.2379 22.7453 91.5379 23.1053C90.8579 23.4653 90.1279 23.7553 89.3479 23.9753C88.5879 24.1753 87.8379 24.2753 87.0979 24.2753ZM100.476 24.2753C99.156 24.2753 97.966 24.0453 96.906 23.5853C95.846 23.1253 94.966 22.4453 94.266 21.5453L96.366 19.7453C96.966 20.4453 97.616 20.9553 98.316 21.2753C99.036 21.5753 99.846 21.7253 100.746 21.7253C101.106 21.7253 101.436 21.6853 101.736 21.6053C102.056 21.5053 102.326 21.3653 102.546 21.1853C102.786 21.0053 102.966 20.7953 103.086 20.5553C103.206 20.2953 103.266 20.0153 103.266 19.7153C103.266 19.1953 103.076 18.7753 102.696 18.4553C102.496 18.3153 102.176 18.1653 101.736 18.0053C101.316 17.8253 100.766 17.6453 100.086 17.4653C98.926 17.1653 97.976 16.8253 97.236 16.4453C96.496 16.0653 95.926 15.6353 95.526 15.1553C95.226 14.7753 95.006 14.3653 94.866 13.9253C94.726 13.4653 94.656 12.9653 94.656 12.4253C94.656 11.7653 94.796 11.1653 95.076 10.6253C95.376 10.0653 95.776 9.58531 96.276 9.18531C96.796 8.76531 97.396 8.44531 98.076 8.22531C98.776 8.00531 99.516 7.89531 100.296 7.89531C101.036 7.89531 101.766 7.99531 102.486 8.19531C103.226 8.39531 103.906 8.68531 104.526 9.06531C105.146 9.44531 105.666 9.89531 106.086 10.4153L104.316 12.3653C103.936 11.9853 103.516 11.6553 103.056 11.3753C102.616 11.0753 102.166 10.8453 101.706 10.6853C101.246 10.5253 100.826 10.4453 100.446 10.4453C100.026 10.4453 99.646 10.4853 99.306 10.5653C98.966 10.6453 98.676 10.7653 98.436 10.9253C98.216 11.0853 98.046 11.2853 97.926 11.5253C97.806 11.7653 97.746 12.0353 97.746 12.3353C97.766 12.5953 97.826 12.8453 97.926 13.0853C98.046 13.3053 98.206 13.4953 98.406 13.6553C98.626 13.8153 98.956 13.9853 99.396 14.1653C99.836 14.3453 100.396 14.5153 101.076 14.6753C102.076 14.9353 102.896 15.2253 103.536 15.5453C104.196 15.8453 104.716 16.1953 105.096 16.5953C105.496 16.9753 105.776 17.4153 105.936 17.9153C106.096 18.4153 106.176 18.9753 106.176 19.5953C106.176 20.4953 105.916 21.3053 105.396 22.0253C104.896 22.7253 104.216 23.2753 103.356 23.6753C102.496 24.0753 101.536 24.2753 100.476 24.2753Z" fill="white"/>
</svg>
